<?xml version="1.0" standalone="no"?>
<!DOCTYPE svg PUBLIC "-//W3C//DTD SVG 20010904//EN"
 "http://www.w3.org/TR/2001/REC-SVG-20010904/DTD/svg10.dtd">
<svg version="1.0" xmlns="http://www.w3.org/2000/svg"
 width="704.000000pt" height="704.000000pt" viewBox="0 0 704.000000 704.000000"
 preserveAspectRatio="xMidYMid meet">
<metadata>
Created by potrace 1.14, written by Peter Selinger 2001-2017
</metadata>
<g transform="translate(0.000000,704.000000) scale(0.100000,-0.100000)"
fill="#000000" stroke="none">
<path d="M2879 7036 c-2 -2 -35 -6 -74 -10 -96 -9 -135 -14 -170 -20 -108 -21
-115 -23 -165 -36 -25 -7 -52 -14 -60 -15 -64 -14 -339 -124 -360 -145 -3 -3
-18 -12 -35 -20 -46 -22 -183 -117 -250 -173 -105 -88 -196 -189 -267 -297
-51 -77 -138 -249 -138 -273 0 -8 -3 -17 -7 -21 -5 -4 -8 -11 -9 -14 0 -4 -8
-32 -17 -62 -18 -61 -45 -186 -52 -240 -17 -138 -22 -347 -10 -430 4 -25 8
-58 10 -75 7 -61 15 -102 35 -175 11 -41 22 -85 25 -98 20 -84 152 -365 226
-477 21 -33 42 -67 46 -75 9 -19 171 -233 212 -280 40 -46 46 -53 54 -67 5 -7
-21 -29 -70 -60 -125 -77 -236 -149 -265 -172 -14 -12 -31 -21 -37 -21 -6 0
-11 -4 -11 -10 0 -5 -6 -10 -14 -10 -8 0 -16 -4 -18 -8 -1 -5 -25 -24 -53 -43
-27 -19 -59 -42 -70 -51 -11 -9 -58 -47 -105 -84 -125 -99 -252 -219 -358
-339 -28 -33 -60 -69 -70 -80 -69 -78 -242 -376 -242 -416 0 -8 -4 -19 -8 -24
-12 -13 -36 -84 -62 -179 -21 -74 -27 -103 -35 -151 -2 -11 -6 -29 -8 -40 -14
-59 -22 -190 -21 -355 2 -208 5 -244 34 -387 6 -29 10 -54 9 -55 -1 -2 3 -12
9 -24 6 -11 13 -32 16 -45 16 -90 133 -349 210 -468 25 -39 46 -76 46 -80 0
-5 3 -11 8 -13 4 -2 27 -30 52 -63 24 -33 49 -65 55 -71 5 -7 26 -31 45 -55
42 -53 197 -209 260 -262 85 -72 253 -178 374 -237 110 -53 278 -120 316 -124
8 -1 31 -8 50 -14 40 -13 202 -48 270 -58 159 -24 235 -28 465 -28 243 0 322
5 480 30 17 2 44 7 60 9 17 3 41 7 55 10 14 4 36 8 50 11 172 34 422 124 590
212 76 40 277 165 290 181 3 3 23 19 46 34 22 15 49 35 60 45 11 9 46 39 79
66 33 28 67 57 76 65 9 9 33 31 54 50 l38 34 19 -24 c11 -13 32 -38 46 -55 15
-17 41 -48 57 -70 17 -21 39 -48 51 -61 11 -12 29 -34 40 -49 10 -14 27 -35
37 -47 10 -12 28 -35 40 -50 12 -15 34 -42 49 -59 15 -17 51 -61 80 -99 l53
-68 165 -1 c568 -3 1443 -1 1447 4 4 4 -180 231 -350 430 -23 27 -48 59 -56
70 -8 12 -18 23 -22 26 -3 3 -34 39 -68 80 -33 41 -69 84 -78 95 -24 27 -98
115 -272 325 -105 126 -151 182 -212 255 -65 76 -74 88 -112 134 -20 25 -44
53 -52 62 -18 19 -18 26 -5 42 28 33 114 153 173 242 37 55 71 105 77 112 5 7
10 17 10 23 0 5 3 10 8 10 4 0 12 9 17 20 6 10 21 41 34 67 14 26 27 50 31 53
11 10 69 128 115 235 25 61 50 119 55 130 15 35 58 158 80 230 12 39 25 77 28
85 3 8 6 20 8 25 22 83 46 175 50 195 32 157 54 276 59 325 4 33 8 71 11 84 2
14 6 66 10 116 l6 92 -591 0 c-424 0 -591 -3 -592 -11 0 -6 -2 -36 -4 -66 -6
-114 -16 -197 -35 -295 -6 -27 -12 -59 -14 -70 -21 -111 -87 -296 -153 -431
-66 -134 -141 -256 -153 -249 -7 4 -138 163 -258 313 -19 22 -41 50 -50 61
-10 11 -27 33 -39 48 -12 15 -30 38 -40 49 -10 12 -29 36 -43 54 -14 18 -30
38 -35 44 -6 6 -49 58 -95 116 -107 133 -95 118 -190 235 -45 55 -87 107 -93
115 -24 30 -102 125 -114 138 -7 7 -13 16 -13 20 0 4 51 38 113 77 61 38 117
73 122 77 6 4 56 41 111 82 107 78 119 87 192 151 61 52 185 178 242 244 138
162 259 403 295 590 2 13 6 30 9 39 3 9 7 33 10 52 3 19 8 46 11 60 12 57 19
184 19 325 -1 147 -5 198 -25 300 -14 73 -17 86 -28 123 -5 17 -7 32 -4 32 3
0 0 6 -6 13 -6 8 -12 22 -14 33 -3 25 -66 174 -82 194 -6 8 -21 35 -33 60 -55
111 -211 290 -352 405 -25 20 -53 43 -63 51 -9 8 -19 14 -21 14 -3 0 -31 17
-63 39 -67 44 -173 101 -223 121 -19 7 -48 19 -65 25 -31 13 -60 23 -73 26 -4
1 -27 9 -52 18 -25 9 -49 17 -55 17 -5 0 -28 5 -50 11 -22 6 -59 14 -82 17
-22 3 -52 8 -65 11 -12 3 -39 8 -58 11 -39 5 -466 15 -471 10z m282 -1001
c122 -16 232 -70 302 -148 41 -45 107 -150 107 -171 0 -6 4 -16 9 -21 16 -18
37 -139 35 -205 -3 -141 -32 -245 -99 -365 -79 -142 -204 -267 -451 -452 l-81
-61 -29 35 c-16 19 -44 51 -61 71 -18 20 -33 40 -33 44 0 4 -6 13 -14 21 -8 7
-46 56 -85 108 -39 52 -78 103 -87 114 -41 53 -109 172 -139 244 -19 45 -33
81 -31 81 2 0 -1 21 -8 48 -11 41 -12 158 -3 232 6 52 41 137 79 195 79 120
245 215 403 232 28 3 51 6 52 7 4 4 76 -1 134 -9z m-578 -2877 c7 -7 39 -47
72 -88 32 -41 64 -80 70 -87 5 -7 15 -18 20 -25 36 -46 93 -116 111 -138 59
-69 294 -361 294 -365 0 -2 12 -17 28 -33 15 -16 75 -90 134 -163 58 -74 115
-144 125 -156 44 -52 53 -63 49 -63 -3 0 8 -13 22 -28 15 -16 34 -37 42 -48 8
-10 31 -39 50 -64 19 -25 37 -47 41 -50 3 -3 32 -39 65 -80 32 -41 64 -80 69
-86 37 -42 55 -65 55 -73 0 -21 -272 -241 -297 -241 -3 0 -14 -6 -22 -14 -27
-24 -223 -124 -296 -151 -186 -70 -399 -99 -595 -80 -107 10 -109 11 -116 18
-4 4 -17 7 -28 7 -21 0 -72 16 -131 41 -16 7 -32 13 -35 14 -22 5 -116 61
-168 99 -51 38 -158 136 -148 136 2 0 -14 19 -36 42 -21 23 -50 62 -65 87 -14
25 -29 48 -33 51 -17 13 -78 171 -96 246 -4 16 -8 91 -9 168 -2 153 12 239 64
371 30 77 117 235 130 235 5 0 12 9 17 20 8 18 184 203 184 194 0 -3 15 9 33
26 17 17 84 70 147 118 63 48 118 92 122 97 4 6 8 7 8 3 0 -4 8 -1 18 7 19 17
85 64 90 65 2 0 9 -6 15 -12z"/>
</g>
</svg>
